<svg width="10" height="11" viewBox="0 0 10 11" fill="none" xmlns="http://www.w3.org/2000/svg">
<path d="M7.14285 0.428574C7.37954 0.428574 7.57142 0.620452 7.57142 0.857145L7.57173 1.35421C7.93166 1.41148 8.1647 1.50398 8.39879 1.62917C8.81784 1.85328 9.14671 2.18215 9.37082 2.6012C9.57443 2.98191 9.69156 3.35982 9.71129 4.28532L9.71428 4.28572V7.41786L9.71199 7.67931C9.69451 8.63063 9.577 9.01328 9.37082 9.3988C9.14671 9.81785 8.81784 10.1467 8.39879 10.3708C7.97974 10.5949 7.56409 10.7143 6.41785 10.7143H3.58213L3.32068 10.712C2.36936 10.6945 1.98671 10.577 1.60119 10.3708C1.18214 10.1467 0.853271 9.81785 0.629162 9.3988C0.414017 8.99652 0.295421 8.59736 0.286277 7.55195L0.285706 4.58214V4.28572C0.30842 3.35982 0.425556 2.98191 0.629162 2.6012C0.853271 2.18215 1.18214 1.85328 1.60119 1.62917C1.83538 1.50393 2.06851 1.4114 2.4287 1.35414L2.42856 0.857145C2.42856 0.620452 2.62044 0.428574 2.85713 0.428574C3.09383 0.428574 3.28571 0.620452 3.28571 0.857145L3.28531 1.2887C3.37851 1.28672 3.47726 1.28572 3.58213 1.28572H6.41785C6.52288 1.28572 6.62178 1.28672 6.71511 1.28871L6.71428 0.857145C6.71428 0.620452 6.90615 0.428574 7.14285 0.428574ZM8.85671 5.14286H1.14285L1.14324 7.53913L1.14704 7.78292C1.1637 8.42885 1.23195 8.70839 1.385 8.99457C1.52923 9.26425 1.73574 9.47077 2.00542 9.61499C2.32527 9.78605 2.63682 9.85118 3.46087 9.85675H6.53912L6.78291 9.85296C7.42884 9.8363 7.70838 9.76804 7.99456 9.61499C8.26424 9.47077 8.47076 9.26425 8.61498 8.99457C8.78604 8.67472 8.85117 8.36317 8.85674 7.53913L8.85671 5.14286ZM7.16257 7.28572C7.34805 7.28572 7.49409 7.32053 7.61631 7.38589C7.73853 7.45126 7.83445 7.54718 7.89982 7.6694C7.96518 7.79162 7.99999 7.93766 7.99999 8.12314V8.16258C7.99999 8.34806 7.96518 8.4941 7.89982 8.61632C7.83445 8.73854 7.73853 8.83446 7.61631 8.89983C7.49409 8.96519 7.34805 9 7.16257 9H7.12313C6.93765 9 6.79161 8.96519 6.66939 8.89983C6.54717 8.83446 6.45125 8.73854 6.38588 8.61632C6.32052 8.4941 6.28571 8.34806 6.28571 8.16258V8.12314C6.28571 7.93766 6.32052 7.79162 6.38588 7.6694C6.45125 7.54718 6.54717 7.45126 6.66939 7.38589C6.79161 7.32053 6.93765 7.28572 7.12313 7.28572H7.16257ZM6.53912 2.14325H3.46087L3.28571 2.14543V2.57143C3.28571 2.80812 3.09383 3 2.85713 3C2.62044 3 2.42856 2.80812 2.42856 2.57143L2.42824 2.22536C2.26509 2.26304 2.13594 2.31521 2.00542 2.38501C1.73574 2.52924 1.52923 2.73575 1.385 3.00543C1.22668 3.30147 1.1591 3.5904 1.1455 4.28513L8.85413 4.28572L8.85295 4.21708C8.83628 3.57115 8.76803 3.29161 8.61498 3.00543C8.47076 2.73575 8.26424 2.52924 7.99456 2.38501C7.86407 2.31522 7.73496 2.26307 7.57186 2.22539L7.57142 2.57143C7.57142 2.80812 7.37954 3 7.14285 3C6.90615 3 6.71428 2.80812 6.71428 2.57143L6.71529 2.14552C6.65928 2.14442 6.60062 2.14367 6.53912 2.14325Z" fill="#8F969C"/>
</svg>
